<?xml version="1.0" encoding="utf-8"?>
<!-- Generator: Adobe Illustrator 22.0.1, SVG Export Plug-In . SVG Version: 6.00 Build 0)  -->
<svg version="1.1" id="Layer_1" xmlns="http://www.w3.org/2000/svg" xmlns:xlink="http://www.w3.org/1999/xlink" x="0px" y="0px"
	 viewBox="0 0 974.1 537" style="enable-background:new 0 0 974.1 537;" xml:space="preserve">
<style type="text/css">
	.st0{fill:none;stroke:#477AE1;stroke-width:1.0499;stroke-opacity:0.4;}
	.st1{fill:none;stroke:#477AE1;stroke-width:60.7928;stroke-opacity:0.4;}
	.st2{fill:none;stroke:#477AE1;stroke-width:73.2524;stroke-opacity:0.4;}
	.st3{fill:none;stroke:#477AE1;stroke-width:5.7247;stroke-opacity:0.4;}
	.st4{fill:none;stroke:#D30021;stroke-width:1.980866e-02;stroke-opacity:0.4;}
	.st5{fill:none;stroke:#D30021;stroke-width:327.7936;stroke-opacity:0.4;}
	.st6{fill:none;stroke:#D30021;stroke-width:1.3668;stroke-opacity:0.4;}
	.st7{fill:none;stroke:#2CCC34;stroke-width:1.0499;stroke-opacity:0.4;}
	.st8{fill:none;stroke:#2CCC34;stroke-width:1.980866e-02;stroke-opacity:0.4;}
	.st9{fill:none;stroke:#D30021;stroke-width:0.1981;stroke-opacity:0.4;}
	.st10{fill:none;stroke:#D30021;stroke-width:384.902;stroke-opacity:0.4;}
	.st11{fill:none;stroke:#D30021;stroke-width:3.4863;stroke-opacity:0.4;}
	.st12{fill:none;stroke:#A909D1;stroke-width:50.2149;stroke-opacity:0.4;}
	.st13{fill:none;stroke:#A909D1;stroke-width:1.8818;stroke-opacity:0.4;}
	.st14{fill:none;stroke:#A909D1;stroke-width:16.4214;stroke-opacity:0.4;}
	.st15{fill:none;stroke:#A909D1;stroke-width:6.1011;stroke-opacity:0.4;}
	.st16{fill:none;stroke:#B6ACB2;stroke-width:5.7247;stroke-opacity:0.4;}
	.st17{fill:none;stroke:#2CCC34;stroke-width:51.4629;stroke-opacity:0.4;}
	.st18{fill:none;stroke:#D30021;stroke-width:7.923463e-02;stroke-opacity:0.4;}
	.st19{fill:none;stroke:#D30021;stroke-width:386.4669;stroke-opacity:0.4;}
	.st20{fill:none;stroke:#D30021;stroke-width:0.2377;stroke-opacity:0.4;}
	.st21{fill:none;stroke:#A909D1;stroke-width:16.3025;stroke-opacity:0.4;}
	.st22{fill:none;stroke:#A909D1;stroke-width:0.6933;stroke-opacity:0.4;}
	.st23{fill:none;stroke:#A909D1;stroke-width:2.2384;stroke-opacity:0.4;}
	.st24{fill:none;stroke:#A909D1;stroke-width:0.6735;stroke-opacity:0.4;}
	.st25{fill:none;stroke:#B6ACB2;stroke-width:11.8456;stroke-opacity:0.4;}
	.st26{font-family:'Times-Roman';}
	.st27{font-size:16px;}
	.st28{fill:#231F20;stroke:#231F20;}
	.st29{font-family:'Times-Bold';}
	.st30{font-size:18px;}
	.st31{fill:none;stroke:#000000;}
	.st32{fill:none;stroke:#000000;stroke-dasharray:12.1889,12.1889;}
	.st33{fill:none;stroke:#231F20;}
	.st34{fill:none;stroke:#231F20;stroke-width:5;}
</style>
<g transform="translate(0, 10)">
	<g>
		<path class="st0" d="M5,10.2c138,0,138-10,276-10"/>
		<path class="st1" d="M5,120.1c138,0,138,21.4,276,21.4"/>
		<path class="st2" d="M5,47.4c138,0,138,0,276,0"/>
		<path class="st3" d="M5,86.8c138,0,138,11.4,276,11.4"/>
		<path class="st4" d="M5,160.5c138,0,138-159.8,276-159.8"/>
		<path class="st5" d="M5,325.8c138,0,138,10,276,10"/>
		<path class="st6" d="M5,161.2c138,0,138-76.5,276-76.5"/>
		<path class="st7" d="M286,0.2c138,0,138,0,276,0"/>
		<path class="st8" d="M286,0.7c138,0,138,90.3,276,90.3"/>
		<path class="st9" d="M286,111.2c138,0,138-60.1,276-60.1"/>
		<path class="st10" d="M286,307.2c138,0,138,0,276,0"/>
		<path class="st11" d="M286,113c138,0,138-33.7,276-33.7"/>
		<path class="st12" d="M286,35.9c138,0,138-10,276-10"/>
		<path class="st13" d="M286,84.4c138,0,138,29.4,276,29.4"/>
		<path class="st14" d="M286,69.2c138,0,138,0.2,276,0.2"/>
		<path class="st15" d="M286,80.4c138,0,138,13.7,276,13.7"/>
		<path class="st16" d="M286,98.2c138,0,138,1.8,276,1.8"/>
		<path class="st17" d="M567,25.4c138,0,138,0,276,0"/>
		<path class="st18" d="M567,112.9c138,0,138-45.5,276-45.5"/>
		<path class="st19" d="M567,306.4c138,0,138,0,276,0"/>
		<path class="st20" d="M567,113.1c138,0,138-33.2,276-33.2"/>
		<path class="st21" d="M567,69.3c138,0,138-10,276-10"/>
		<path class="st22" d="M567,80.7c138,0,138,32.2,276,32.2"/>
		<path class="st23" d="M567,78.6c138,0,138,0.1,276,0.1"/>
		<path class="st24" d="M567,80c138,0,138,10.3,276,10.3"/>
		<path class="st25" d="M567,97c138,0,138-0.4,276-0.4"/>
	</g>
	<g>
		<g>
			<rect x="281" y="-0.3" width="5" height="1.1"/>
			<text transform="matrix(1 0 0 1 291.8842 3.7122)" class="st26 st27">Accepted</text>
		</g>
		<g>
			<rect x="281" y="10.7" width="5" height="74.6"/>
			<text transform="matrix(1 0 0 1 291.8842 51.5564)" class="st26 st27">Revision needed</text>
		</g>
		<g>
			<rect x="281" y="95.4" width="5" height="5.7"/>
			<text transform="matrix(1 0 0 1 291.8842 101.0908)" class="st26 st27">Decision pending</text>
		</g>
		<g>
			<rect x="281" y="111.1" width="5" height="388.6"/>
			<text transform="matrix(1 0 0 1 291.8843 146.8619)" class="st26 st27">Rejected</text>
		</g>
		<g>
			<rect y="9.7" width="5" height="140.8"/>
			<text transform="matrix(1 0 0 1 11 83.5871)" class="st26 st27">Encouraged</text>
		</g>
		<g>
			<rect y="160.5" width="5" height="329.2"/>
			<text transform="matrix(1 0 0 1 11 328.5872)" class="st26 st27">Rejected</text>
		</g>
		<g>
			<rect x="562" y="-0.3" width="5" height="51.5"/>
			<text transform="matrix(1 0 0 1 574.7574 28.9087)" class="st26 st27">Accepted</text>
		</g>
		<g>
			<rect x="562" y="61.1" width="5" height="19.9"/>
			<text transform="matrix(1 0 0 1 574.7574 74.5938)" class="st26 st27">Revision needed</text>
		</g>
		<g>
			<rect x="562" y="91" width="5" height="11.8"/>
			<text transform="matrix(1 0 0 1 575.7175 101.0908)" class="st26 st27">Decision pending</text>
		</g>
		<g>
			<rect x="562" y="112.9" width="5" height="386.8"/>
			<text transform="matrix(1 0 0 1 574.7582 117.7569)" class="st26 st27">Rejected</text>
		</g>
		<g>
			<rect x="843" y="-0.3" class="st28" width="5" height="67.8"/>
			<text transform="matrix(1 0 0 1 852.8094 35.8547)" class="st29 st27">Accepted</text>
		</g>
		<g>
			<rect x="843" y="77.5" width="5" height="2.5"/>
			<text transform="matrix(1 0 0 1 852.8096 83.587)" class="st29 st27">Revision needed</text>
		</g>
		<g>
			<rect x="843" y="90" width="5" height="12.5"/>
			<text transform="matrix(1 0 0 1 852.809 100.0313)" class="st29 st27">Decision pending</text>
		</g>
		<g>
			<rect x="843" y="112.5" width="5" height="387.2"/>
			<text transform="matrix(1 0 0 1 852.8093 306.0968)" class="st29 st27">Rejected</text>
		</g>
	</g>
	<text transform="matrix(1 0 0 1 4.9999 516.9478)" class="st29 st30">Initial Submission</text>
	<text transform="matrix(1 0 0 1 219.4496 516.9478)" class="st29 st30">Full Submission</text>
	<text transform="matrix(1 0 0 1 515.2144 516.948)" class="st29 st30">First Revision</text>
	<text transform="matrix(1 0 0 1 723.0253 516.9479)" class="st29 st30">Second Revision</text>
	<g>
		<g>
			<line class="st31" x1="285" y1="172.5" x2="291" y2="172.5"/>
			<line class="st32" x1="303.2" y1="172.5" x2="833.4" y2="171.7"/>
			<line class="st31" x1="839.5" y1="171.7" x2="845.5" y2="171.7"/>
		</g>
	</g>
	<path class="st33" d="M1427.2,159.7"/>
	<path class="st33" d="M870.2,160.5"/>
	<line class="st34" x1="362.6" y1="171.4" x2="362.6" y2="171.4"/>
</g>
</svg>
